<svg xmlns="http://www.w3.org/2000/svg" viewBox="0 0 512 512"><path d="M439 223.4A143.1 143.1 0 0 1 248.2 252a30 30 0 1 1 19-23.4c18.4 11.8 39.8 18 62.1 17.7a112 112 0 0 0 88.3-44.4L315.4 99.8 362.1 53a31.6 31.6 0 0 1 44.6 0 114.4 114.4 0 0 1 10.9 149l21.4 21.5a144.3 144.3 0 0 0-11-191.7c-24-24-63.1-24-87.1 0l-47 46.7-26.1-26.2-108.6 108.6A115.3 115.3 0 0 0 0 267.2v90h30v-90a30 30 0 0 1 47.4-24.6l-11.5 11.5L310 498.3 512 296.4l-73-73zm-340.2-2.2a60 60 0 0 0-44.1-13.9 84.8 84.8 0 0 1 80.8-22.8l-36.7 36.7z"/></svg>