<svg xmlns="http://www.w3.org/2000/svg" viewBox="0 0 469.3 469.3"><path d="M469.3 78.6a78.6 78.6 0 0 0-134-55.6l-74 74-8.4-8.5c-4.2-4.2-11-4.2-15.1 0L195 131c-4.1 4.2-4.1 11 0 15.1L209 160 58.3 310.6a53 53 0 0 0-15.6 37.7c0 14.3-4.2 28-12.1 40L1.8 431.3A10.7 10.7 0 0 0 3 445l21.4 21.3a10.6 10.6 0 0 0 13.4 1.3l45.1-30c10.6-7 23-10.8 35.7-10.8 14.7 0 28.8-6.1 38.7-16.7a11804 11804 0 0 1 151.8-149.7l14 14a10.6 10.6 0 0 0 15 0l42.7-42.8c4.1-4.1 4.1-10.9 0-15l-8.5-8.5 74-74a78 78 0 0 0 23-55.4zm-261 220h-77.7L239 190.3 279 230c-17.6 17-42.5 41-70.8 68.6z"/></svg>