<svg xmlns="http://www.w3.org/2000/svg" viewBox="0 0 59.07 59.07"><path d="M52.85 27.12A2.29 2.29 0 0 0 50.79 26a10 10 0 0 0-5.23 1.72 17.47 17.47 0 0 0-5.3 5.87 2.1 2.1 0 0 1-1.45 1.06v-.43l-.01-1.08V11a4 4 0 0 0-8 0v15.5c0 .28-.23.5-.5.5s-.5-.23-.5-.5V4a4 4 0 0 0-8 0v22.5c0 .28-.23.5-.5.5s-.5-.23-.5-.5v-18a3.5 3.5 0 0 0-7 0v20c0 .28-.23.5-.5.5s-.5-.23-.5-.5V16a3.5 3.5 0 0 0-7.01 0v27.2c.97 13.98 9.54 15.87 17.8 15.87 6.85 0 13-3.4 16.03-8.83l2.7-4.25c3.13-4.91 5.75-9.04 6.14-9.78a12.1 12.1 0 0 1 2.78-3.69c.87-.7 1.4-1.61 1.83-2.4.22-.42.41-1.93-.22-3z"/></svg>