<svg version="1" xmlns="http://www.w3.org/2000/svg" viewBox="0 0 429 439"><path d="M466 387L317 238a11 11 0 0 0-18 7v214a11 11 0 0 0 18 7l61-61h81a11 11 0 0 0 7-18zM53 341H43v-10a21 21 0 1 0-43 0v32c0 11 10 21 21 21h32a21 21 0 1 0 0-43zM21 181c12 0 22-9 22-21v-43a21 21 0 1 0-43 0v43c0 12 10 21 21 21zM21 288c12 0 22-10 22-21v-43a21 21 0 1 0-43 0v43c0 11 10 21 21 21zM53 0H21C10 0 0 10 0 21v32a21 21 0 1 0 43 0V43h10a21 21 0 1 0 0-43zM160 0h-43a21 21 0 1 0 0 43h43a21 21 0 1 0 0-43zM267 0h-43a21 21 0 1 0 0 43h43a21 21 0 1 0 0-43zM160 341h-43a21 21 0 1 0 0 43h43a21 21 0 1 0 0-43zM267 341h-43a21 21 0 1 0 0 43h43a21 21 0 1 0 0-43zM331 43h10v10a21 21 0 1 0 43 0V21c0-11-10-21-21-21h-32a21 21 0 1 0 0 43zM363 203c-12 0-22 9-22 21v21a21 21 0 1 0 43 0v-21c0-12-10-21-21-21zM384 117a21 21 0 1 0-43 0v43a21 21 0 1 0 43 0v-43z"/></svg>