<svg xmlns="http://www.w3.org/2000/svg" viewBox="0 0 310.42 310.42"><path d="M273.59 214.97c49.1-49.12 49.1-129.03 0-178.14-49.11-49.1-129.02-49.1-178.13 0C53.79 78.5 47.48 140.46 76.5 188.85c0 0 2.08 3.5-.73 6.31l-64.26 64.27c-12.8 12.79-15.84 30.67-4.5 42.02l1.96 1.95c11.34 11.34 29.23 8.3 42.02-4.5l64.12-64.12c2.95-2.95 6.45-.87 6.45-.87 48.39 29.03 110.35 22.72 152.02-18.94zM118.7 191.7c-36.29-36.29-36.29-95.33 0-131.62 36.29-36.29 95.33-36.29 131.62 0 36.29 36.29 36.29 95.33 0 131.62-36.29 36.29-95.33 36.29-131.62 0z"/><path d="M126.75 118.42a13 13 0 0 1-11.97-18.07c17.59-41.55 65.7-61.06 107.26-43.47a13 13 0 0 1-10.13 23.94 55.9 55.9 0 0 0-73.18 29.67 13 13 0 0 1-11.98 7.93z"/></svg>